<mxfile host="app.diagrams.net" modified="2024-01-24T23:47:03.483Z" agent="Mozilla/5.0 (Macintosh; Intel Mac OS X 10_15_7) AppleWebKit/537.36 (KHTML, like Gecko) Chrome/120.0.0.0 Safari/537.36" etag="5JjR4NTUYJ0tZwoheKbg" version="21.8.0" type="github">
  <diagram id="C5RBs43oDa-KdzZeNtuy" name="Page-1">
    <mxGraphModel dx="2022" dy="655" grid="1" gridSize="10" guides="1" tooltips="1" connect="1" arrows="1" fold="1" page="1" pageScale="1" pageWidth="827" pageHeight="1169" math="0" shadow="0">
      <root>
        <mxCell id="WIyWlLk6GJQsqaUBKTNV-0" />
        <mxCell id="WIyWlLk6GJQsqaUBKTNV-1" parent="WIyWlLk6GJQsqaUBKTNV-0" />
        <mxCell id="xHxmoFjbufYu5VJIdYqy-1" value="Website bán sản phẩm&lt;br&gt;&amp;nbsp;cho mèo" style="rounded=0;whiteSpace=wrap;html=1;" vertex="1" parent="WIyWlLk6GJQsqaUBKTNV-1">
          <mxGeometry x="160" y="1080" width="160" height="80" as="geometry" />
        </mxCell>
        <mxCell id="xHxmoFjbufYu5VJIdYqy-2" value="Chức năng cho người dùng" style="rounded=0;whiteSpace=wrap;html=1;" vertex="1" parent="WIyWlLk6GJQsqaUBKTNV-1">
          <mxGeometry x="-160" y="1240" width="160" height="80" as="geometry" />
        </mxCell>
        <mxCell id="xHxmoFjbufYu5VJIdYqy-3" value="Chức năng cho Admin" style="rounded=0;whiteSpace=wrap;html=1;" vertex="1" parent="WIyWlLk6GJQsqaUBKTNV-1">
          <mxGeometry x="480" y="1240" width="160" height="80" as="geometry" />
        </mxCell>
        <mxCell id="xHxmoFjbufYu5VJIdYqy-4" value="5. Quản lý tài khoản" style="rounded=0;whiteSpace=wrap;html=1;" vertex="1" parent="WIyWlLk6GJQsqaUBKTNV-1">
          <mxGeometry x="320" y="1360" width="160" height="80" as="geometry" />
        </mxCell>
        <mxCell id="xHxmoFjbufYu5VJIdYqy-5" value="7. Quản lý sản phẩm" style="rounded=0;whiteSpace=wrap;html=1;" vertex="1" parent="WIyWlLk6GJQsqaUBKTNV-1">
          <mxGeometry x="800" y="1360" width="160" height="80" as="geometry" />
        </mxCell>
        <mxCell id="xHxmoFjbufYu5VJIdYqy-6" value="6. Quản lý bài viết" style="rounded=0;whiteSpace=wrap;html=1;" vertex="1" parent="WIyWlLk6GJQsqaUBKTNV-1">
          <mxGeometry x="560" y="1360" width="160" height="80" as="geometry" />
        </mxCell>
        <mxCell id="xHxmoFjbufYu5VJIdYqy-7" value="8. Quản lý đơn hàng" style="rounded=0;whiteSpace=wrap;html=1;" vertex="1" parent="WIyWlLk6GJQsqaUBKTNV-1">
          <mxGeometry x="1040" y="1360" width="160" height="80" as="geometry" />
        </mxCell>
        <mxCell id="xHxmoFjbufYu5VJIdYqy-8" value="9. Quản lý thông tin cập nhật" style="rounded=0;whiteSpace=wrap;html=1;" vertex="1" parent="WIyWlLk6GJQsqaUBKTNV-1">
          <mxGeometry x="1280" y="1360" width="160" height="80" as="geometry" />
        </mxCell>
        <mxCell id="xHxmoFjbufYu5VJIdYqy-9" value="2. Tìm kiếm , lọc sản phẩm" style="rounded=0;whiteSpace=wrap;html=1;" vertex="1" parent="WIyWlLk6GJQsqaUBKTNV-1">
          <mxGeometry x="-400" y="1360" width="160" height="80" as="geometry" />
        </mxCell>
        <mxCell id="xHxmoFjbufYu5VJIdYqy-10" value="1. Quản lý tài khoản bản thân" style="rounded=0;whiteSpace=wrap;html=1;" vertex="1" parent="WIyWlLk6GJQsqaUBKTNV-1">
          <mxGeometry x="-640" y="1360" width="160" height="80" as="geometry" />
        </mxCell>
        <mxCell id="xHxmoFjbufYu5VJIdYqy-11" value="3. Đọc tin tức" style="rounded=0;whiteSpace=wrap;html=1;" vertex="1" parent="WIyWlLk6GJQsqaUBKTNV-1">
          <mxGeometry x="-160" y="1360" width="160" height="80" as="geometry" />
        </mxCell>
        <mxCell id="xHxmoFjbufYu5VJIdYqy-12" value="4. Mua hàng" style="rounded=0;whiteSpace=wrap;html=1;" vertex="1" parent="WIyWlLk6GJQsqaUBKTNV-1">
          <mxGeometry x="80" y="1360" width="160" height="80" as="geometry" />
        </mxCell>
        <mxCell id="xHxmoFjbufYu5VJIdYqy-13" value="3.1 Đọc tin tức" style="rounded=0;whiteSpace=wrap;html=1;" vertex="1" parent="WIyWlLk6GJQsqaUBKTNV-1">
          <mxGeometry x="-120" y="1480" width="160" height="40" as="geometry" />
        </mxCell>
        <mxCell id="xHxmoFjbufYu5VJIdYqy-14" value="3.2 Chia sẻ tin tức" style="rounded=0;whiteSpace=wrap;html=1;" vertex="1" parent="WIyWlLk6GJQsqaUBKTNV-1">
          <mxGeometry x="-120" y="1560" width="160" height="40" as="geometry" />
        </mxCell>
        <mxCell id="xHxmoFjbufYu5VJIdYqy-15" value="1.1 Đăng nhập" style="rounded=0;whiteSpace=wrap;html=1;" vertex="1" parent="WIyWlLk6GJQsqaUBKTNV-1">
          <mxGeometry x="-600" y="1480" width="160" height="40" as="geometry" />
        </mxCell>
        <mxCell id="xHxmoFjbufYu5VJIdYqy-16" value="1.2 Đăng ký" style="rounded=0;whiteSpace=wrap;html=1;" vertex="1" parent="WIyWlLk6GJQsqaUBKTNV-1">
          <mxGeometry x="-600" y="1560" width="160" height="40" as="geometry" />
        </mxCell>
        <mxCell id="xHxmoFjbufYu5VJIdYqy-17" value="1.3 Cập nhật thông tin tài khoản" style="rounded=0;whiteSpace=wrap;html=1;" vertex="1" parent="WIyWlLk6GJQsqaUBKTNV-1">
          <mxGeometry x="-600" y="1640" width="160" height="40" as="geometry" />
        </mxCell>
        <mxCell id="xHxmoFjbufYu5VJIdYqy-18" value="4.1 Thêm sản phẩm &lt;br&gt;vào giỏ hàng" style="rounded=0;whiteSpace=wrap;html=1;" vertex="1" parent="WIyWlLk6GJQsqaUBKTNV-1">
          <mxGeometry x="120" y="1480" width="160" height="40" as="geometry" />
        </mxCell>
        <mxCell id="xHxmoFjbufYu5VJIdYqy-19" value="4.2 Xoá sản phẩm khỏi giỏ hàng" style="rounded=0;whiteSpace=wrap;html=1;" vertex="1" parent="WIyWlLk6GJQsqaUBKTNV-1">
          <mxGeometry x="120" y="1560" width="160" height="40" as="geometry" />
        </mxCell>
        <mxCell id="xHxmoFjbufYu5VJIdYqy-20" value="4.3 Thanh toán" style="rounded=0;whiteSpace=wrap;html=1;" vertex="1" parent="WIyWlLk6GJQsqaUBKTNV-1">
          <mxGeometry x="120" y="1640" width="160" height="40" as="geometry" />
        </mxCell>
        <mxCell id="xHxmoFjbufYu5VJIdYqy-21" value="2.1 Tìm kiếm sản phẩm" style="rounded=0;whiteSpace=wrap;html=1;" vertex="1" parent="WIyWlLk6GJQsqaUBKTNV-1">
          <mxGeometry x="-360" y="1480" width="160" height="40" as="geometry" />
        </mxCell>
        <mxCell id="xHxmoFjbufYu5VJIdYqy-22" value="2.2 Lọc sản phẩm" style="rounded=0;whiteSpace=wrap;html=1;" vertex="1" parent="WIyWlLk6GJQsqaUBKTNV-1">
          <mxGeometry x="-360" y="1560" width="160" height="40" as="geometry" />
        </mxCell>
        <mxCell id="xHxmoFjbufYu5VJIdYqy-23" value="5.1 Tìm kiếm tài khoản" style="rounded=0;whiteSpace=wrap;html=1;" vertex="1" parent="WIyWlLk6GJQsqaUBKTNV-1">
          <mxGeometry x="360" y="1480" width="160" height="40" as="geometry" />
        </mxCell>
        <mxCell id="xHxmoFjbufYu5VJIdYqy-24" value="5.2 Lọc tài khoản" style="rounded=0;whiteSpace=wrap;html=1;" vertex="1" parent="WIyWlLk6GJQsqaUBKTNV-1">
          <mxGeometry x="360" y="1560" width="160" height="40" as="geometry" />
        </mxCell>
        <mxCell id="xHxmoFjbufYu5VJIdYqy-26" value="6.1 Thêm bài viết" style="rounded=0;whiteSpace=wrap;html=1;" vertex="1" parent="WIyWlLk6GJQsqaUBKTNV-1">
          <mxGeometry x="600" y="1480" width="160" height="40" as="geometry" />
        </mxCell>
        <mxCell id="xHxmoFjbufYu5VJIdYqy-27" value="&lt;span style=&quot;font-weight: normal;&quot;&gt;6.2 Sửa bài viết&lt;/span&gt;" style="rounded=0;whiteSpace=wrap;html=1;fontStyle=1" vertex="1" parent="WIyWlLk6GJQsqaUBKTNV-1">
          <mxGeometry x="600" y="1560" width="160" height="40" as="geometry" />
        </mxCell>
        <mxCell id="xHxmoFjbufYu5VJIdYqy-28" value="&lt;span style=&quot;font-weight: normal;&quot;&gt;6.3 Xoá bài viết&lt;/span&gt;" style="rounded=0;whiteSpace=wrap;html=1;fontStyle=1" vertex="1" parent="WIyWlLk6GJQsqaUBKTNV-1">
          <mxGeometry x="600" y="1640" width="160" height="40" as="geometry" />
        </mxCell>
        <mxCell id="xHxmoFjbufYu5VJIdYqy-29" value="6.4 Sắp xếp bài viết" style="rounded=0;whiteSpace=wrap;html=1;" vertex="1" parent="WIyWlLk6GJQsqaUBKTNV-1">
          <mxGeometry x="600" y="1720" width="160" height="40" as="geometry" />
        </mxCell>
        <mxCell id="xHxmoFjbufYu5VJIdYqy-30" value="7.1 Thêm sản phẩm" style="rounded=0;whiteSpace=wrap;html=1;" vertex="1" parent="WIyWlLk6GJQsqaUBKTNV-1">
          <mxGeometry x="840" y="1480" width="160" height="40" as="geometry" />
        </mxCell>
        <mxCell id="xHxmoFjbufYu5VJIdYqy-31" value="7.2 Xoá sản phẩm" style="rounded=0;whiteSpace=wrap;html=1;" vertex="1" parent="WIyWlLk6GJQsqaUBKTNV-1">
          <mxGeometry x="840" y="1560" width="160" height="40" as="geometry" />
        </mxCell>
        <mxCell id="xHxmoFjbufYu5VJIdYqy-32" value="7.3 Sửa sản phẩm" style="rounded=0;whiteSpace=wrap;html=1;" vertex="1" parent="WIyWlLk6GJQsqaUBKTNV-1">
          <mxGeometry x="840" y="1640" width="160" height="40" as="geometry" />
        </mxCell>
        <mxCell id="xHxmoFjbufYu5VJIdYqy-33" value="7.4 Sắp xếp sản phẩm" style="rounded=0;whiteSpace=wrap;html=1;" vertex="1" parent="WIyWlLk6GJQsqaUBKTNV-1">
          <mxGeometry x="840" y="1720" width="160" height="40" as="geometry" />
        </mxCell>
        <mxCell id="xHxmoFjbufYu5VJIdYqy-34" value="8.1 Sắp xếp đơn hàng" style="rounded=0;whiteSpace=wrap;html=1;" vertex="1" parent="WIyWlLk6GJQsqaUBKTNV-1">
          <mxGeometry x="1081" y="1480" width="159" height="40" as="geometry" />
        </mxCell>
        <mxCell id="xHxmoFjbufYu5VJIdYqy-35" value="8.2 Tìm kiếm đơn hàng" style="rounded=0;whiteSpace=wrap;html=1;" vertex="1" parent="WIyWlLk6GJQsqaUBKTNV-1">
          <mxGeometry x="1080" y="1560" width="160" height="40" as="geometry" />
        </mxCell>
        <mxCell id="xHxmoFjbufYu5VJIdYqy-36" value="9.1 Thêm thông tin" style="rounded=0;whiteSpace=wrap;html=1;" vertex="1" parent="WIyWlLk6GJQsqaUBKTNV-1">
          <mxGeometry x="1320" y="1480" width="160" height="40" as="geometry" />
        </mxCell>
        <mxCell id="xHxmoFjbufYu5VJIdYqy-37" value="9.2 Sửa thông tin" style="rounded=0;whiteSpace=wrap;html=1;" vertex="1" parent="WIyWlLk6GJQsqaUBKTNV-1">
          <mxGeometry x="1320" y="1560" width="160" height="40" as="geometry" />
        </mxCell>
        <mxCell id="xHxmoFjbufYu5VJIdYqy-38" value="9.3 Xoá thông tin" style="rounded=0;whiteSpace=wrap;html=1;" vertex="1" parent="WIyWlLk6GJQsqaUBKTNV-1">
          <mxGeometry x="1320" y="1640" width="160" height="40" as="geometry" />
        </mxCell>
        <mxCell id="xHxmoFjbufYu5VJIdYqy-39" value="" style="endArrow=classic;html=1;rounded=0;exitX=0.5;exitY=1;exitDx=0;exitDy=0;" edge="1" parent="WIyWlLk6GJQsqaUBKTNV-1" source="xHxmoFjbufYu5VJIdYqy-1">
          <mxGeometry width="50" height="50" relative="1" as="geometry">
            <mxPoint x="160" y="1370" as="sourcePoint" />
            <mxPoint x="240" y="1200" as="targetPoint" />
          </mxGeometry>
        </mxCell>
        <mxCell id="xHxmoFjbufYu5VJIdYqy-40" value="" style="endArrow=none;html=1;rounded=0;" edge="1" parent="WIyWlLk6GJQsqaUBKTNV-1">
          <mxGeometry width="50" height="50" relative="1" as="geometry">
            <mxPoint x="-80" y="1200" as="sourcePoint" />
            <mxPoint x="560" y="1200" as="targetPoint" />
          </mxGeometry>
        </mxCell>
        <mxCell id="xHxmoFjbufYu5VJIdYqy-41" value="" style="endArrow=classic;html=1;rounded=0;entryX=0.5;entryY=0;entryDx=0;entryDy=0;" edge="1" parent="WIyWlLk6GJQsqaUBKTNV-1" target="xHxmoFjbufYu5VJIdYqy-2">
          <mxGeometry width="50" height="50" relative="1" as="geometry">
            <mxPoint x="-80" y="1200" as="sourcePoint" />
            <mxPoint x="210" y="1320" as="targetPoint" />
          </mxGeometry>
        </mxCell>
        <mxCell id="xHxmoFjbufYu5VJIdYqy-42" value="" style="endArrow=classic;html=1;rounded=0;entryX=0.5;entryY=0;entryDx=0;entryDy=0;" edge="1" parent="WIyWlLk6GJQsqaUBKTNV-1" target="xHxmoFjbufYu5VJIdYqy-3">
          <mxGeometry width="50" height="50" relative="1" as="geometry">
            <mxPoint x="560" y="1200" as="sourcePoint" />
            <mxPoint x="210" y="1320" as="targetPoint" />
          </mxGeometry>
        </mxCell>
        <mxCell id="xHxmoFjbufYu5VJIdYqy-43" value="" style="endArrow=classic;html=1;rounded=0;exitX=0.5;exitY=1;exitDx=0;exitDy=0;" edge="1" parent="WIyWlLk6GJQsqaUBKTNV-1" source="xHxmoFjbufYu5VJIdYqy-2">
          <mxGeometry width="50" height="50" relative="1" as="geometry">
            <mxPoint x="160" y="1370" as="sourcePoint" />
            <mxPoint x="-80" y="1340" as="targetPoint" />
          </mxGeometry>
        </mxCell>
        <mxCell id="xHxmoFjbufYu5VJIdYqy-44" value="" style="endArrow=none;html=1;rounded=0;" edge="1" parent="WIyWlLk6GJQsqaUBKTNV-1">
          <mxGeometry width="50" height="50" relative="1" as="geometry">
            <mxPoint x="-560" y="1340" as="sourcePoint" />
            <mxPoint x="160" y="1340" as="targetPoint" />
          </mxGeometry>
        </mxCell>
        <mxCell id="xHxmoFjbufYu5VJIdYqy-45" value="" style="endArrow=classic;html=1;rounded=0;entryX=0.5;entryY=0;entryDx=0;entryDy=0;" edge="1" parent="WIyWlLk6GJQsqaUBKTNV-1" target="xHxmoFjbufYu5VJIdYqy-10">
          <mxGeometry width="50" height="50" relative="1" as="geometry">
            <mxPoint x="-560" y="1340" as="sourcePoint" />
            <mxPoint x="-240" y="1320" as="targetPoint" />
          </mxGeometry>
        </mxCell>
        <mxCell id="xHxmoFjbufYu5VJIdYqy-46" value="" style="endArrow=classic;html=1;rounded=0;entryX=0.5;entryY=0;entryDx=0;entryDy=0;" edge="1" parent="WIyWlLk6GJQsqaUBKTNV-1" target="xHxmoFjbufYu5VJIdYqy-9">
          <mxGeometry width="50" height="50" relative="1" as="geometry">
            <mxPoint x="-320" y="1340" as="sourcePoint" />
            <mxPoint x="-240" y="1320" as="targetPoint" />
          </mxGeometry>
        </mxCell>
        <mxCell id="xHxmoFjbufYu5VJIdYqy-47" value="" style="endArrow=classic;html=1;rounded=0;entryX=0.5;entryY=0;entryDx=0;entryDy=0;" edge="1" parent="WIyWlLk6GJQsqaUBKTNV-1" target="xHxmoFjbufYu5VJIdYqy-11">
          <mxGeometry width="50" height="50" relative="1" as="geometry">
            <mxPoint x="-80" y="1340" as="sourcePoint" />
            <mxPoint x="-240" y="1320" as="targetPoint" />
          </mxGeometry>
        </mxCell>
        <mxCell id="xHxmoFjbufYu5VJIdYqy-48" value="" style="endArrow=classic;html=1;rounded=0;entryX=0.5;entryY=0;entryDx=0;entryDy=0;" edge="1" parent="WIyWlLk6GJQsqaUBKTNV-1" target="xHxmoFjbufYu5VJIdYqy-12">
          <mxGeometry width="50" height="50" relative="1" as="geometry">
            <mxPoint x="160" y="1340" as="sourcePoint" />
            <mxPoint x="-240" y="1320" as="targetPoint" />
          </mxGeometry>
        </mxCell>
        <mxCell id="xHxmoFjbufYu5VJIdYqy-49" value="" style="endArrow=classic;html=1;rounded=0;exitX=0.5;exitY=1;exitDx=0;exitDy=0;" edge="1" parent="WIyWlLk6GJQsqaUBKTNV-1" source="xHxmoFjbufYu5VJIdYqy-3">
          <mxGeometry width="50" height="50" relative="1" as="geometry">
            <mxPoint x="530" y="1370" as="sourcePoint" />
            <mxPoint x="560" y="1340" as="targetPoint" />
          </mxGeometry>
        </mxCell>
        <mxCell id="xHxmoFjbufYu5VJIdYqy-50" value="" style="endArrow=none;html=1;rounded=0;" edge="1" parent="WIyWlLk6GJQsqaUBKTNV-1">
          <mxGeometry width="50" height="50" relative="1" as="geometry">
            <mxPoint x="400" y="1340" as="sourcePoint" />
            <mxPoint x="1361" y="1340" as="targetPoint" />
          </mxGeometry>
        </mxCell>
        <mxCell id="xHxmoFjbufYu5VJIdYqy-51" value="" style="endArrow=classic;html=1;rounded=0;entryX=0.5;entryY=0;entryDx=0;entryDy=0;" edge="1" parent="WIyWlLk6GJQsqaUBKTNV-1" target="xHxmoFjbufYu5VJIdYqy-4">
          <mxGeometry width="50" height="50" relative="1" as="geometry">
            <mxPoint x="400" y="1340" as="sourcePoint" />
            <mxPoint x="780" y="1320" as="targetPoint" />
          </mxGeometry>
        </mxCell>
        <mxCell id="xHxmoFjbufYu5VJIdYqy-53" value="" style="endArrow=classic;html=1;rounded=0;entryX=0.5;entryY=0;entryDx=0;entryDy=0;" edge="1" parent="WIyWlLk6GJQsqaUBKTNV-1" target="xHxmoFjbufYu5VJIdYqy-6">
          <mxGeometry width="50" height="50" relative="1" as="geometry">
            <mxPoint x="640" y="1340" as="sourcePoint" />
            <mxPoint x="780" y="1320" as="targetPoint" />
          </mxGeometry>
        </mxCell>
        <mxCell id="xHxmoFjbufYu5VJIdYqy-54" value="" style="endArrow=classic;html=1;rounded=0;entryX=0.5;entryY=0;entryDx=0;entryDy=0;" edge="1" parent="WIyWlLk6GJQsqaUBKTNV-1" target="xHxmoFjbufYu5VJIdYqy-5">
          <mxGeometry width="50" height="50" relative="1" as="geometry">
            <mxPoint x="880" y="1340" as="sourcePoint" />
            <mxPoint x="780" y="1320" as="targetPoint" />
          </mxGeometry>
        </mxCell>
        <mxCell id="xHxmoFjbufYu5VJIdYqy-55" value="" style="endArrow=classic;html=1;rounded=0;entryX=0.5;entryY=0;entryDx=0;entryDy=0;" edge="1" parent="WIyWlLk6GJQsqaUBKTNV-1" target="xHxmoFjbufYu5VJIdYqy-7">
          <mxGeometry width="50" height="50" relative="1" as="geometry">
            <mxPoint x="1120" y="1340" as="sourcePoint" />
            <mxPoint x="780" y="1320" as="targetPoint" />
          </mxGeometry>
        </mxCell>
        <mxCell id="xHxmoFjbufYu5VJIdYqy-56" value="" style="endArrow=classic;html=1;rounded=0;entryX=0.5;entryY=0;entryDx=0;entryDy=0;" edge="1" parent="WIyWlLk6GJQsqaUBKTNV-1" target="xHxmoFjbufYu5VJIdYqy-8">
          <mxGeometry width="50" height="50" relative="1" as="geometry">
            <mxPoint x="1360" y="1340" as="sourcePoint" />
            <mxPoint x="780" y="1320" as="targetPoint" />
          </mxGeometry>
        </mxCell>
        <mxCell id="xHxmoFjbufYu5VJIdYqy-57" value="" style="endArrow=none;html=1;rounded=0;" edge="1" parent="WIyWlLk6GJQsqaUBKTNV-1">
          <mxGeometry width="50" height="50" relative="1" as="geometry">
            <mxPoint x="-620" y="1440" as="sourcePoint" />
            <mxPoint x="-620" y="1660" as="targetPoint" />
          </mxGeometry>
        </mxCell>
        <mxCell id="xHxmoFjbufYu5VJIdYqy-58" value="" style="endArrow=classic;html=1;rounded=0;entryX=0;entryY=0.5;entryDx=0;entryDy=0;" edge="1" parent="WIyWlLk6GJQsqaUBKTNV-1" target="xHxmoFjbufYu5VJIdYqy-15">
          <mxGeometry width="50" height="50" relative="1" as="geometry">
            <mxPoint x="-620" y="1500" as="sourcePoint" />
            <mxPoint x="-450" y="1470" as="targetPoint" />
          </mxGeometry>
        </mxCell>
        <mxCell id="xHxmoFjbufYu5VJIdYqy-59" value="" style="endArrow=classic;html=1;rounded=0;entryX=0;entryY=0.5;entryDx=0;entryDy=0;" edge="1" parent="WIyWlLk6GJQsqaUBKTNV-1" target="xHxmoFjbufYu5VJIdYqy-16">
          <mxGeometry width="50" height="50" relative="1" as="geometry">
            <mxPoint x="-620" y="1580" as="sourcePoint" />
            <mxPoint x="-450" y="1470" as="targetPoint" />
          </mxGeometry>
        </mxCell>
        <mxCell id="xHxmoFjbufYu5VJIdYqy-60" value="" style="endArrow=classic;html=1;rounded=0;entryX=0;entryY=0.5;entryDx=0;entryDy=0;" edge="1" parent="WIyWlLk6GJQsqaUBKTNV-1" target="xHxmoFjbufYu5VJIdYqy-17">
          <mxGeometry width="50" height="50" relative="1" as="geometry">
            <mxPoint x="-620" y="1660" as="sourcePoint" />
            <mxPoint x="-450" y="1470" as="targetPoint" />
          </mxGeometry>
        </mxCell>
        <mxCell id="xHxmoFjbufYu5VJIdYqy-61" value="" style="endArrow=none;html=1;rounded=0;entryX=0.119;entryY=0.999;entryDx=0;entryDy=0;entryPerimeter=0;" edge="1" parent="WIyWlLk6GJQsqaUBKTNV-1">
          <mxGeometry width="50" height="50" relative="1" as="geometry">
            <mxPoint x="-380" y="1580" as="sourcePoint" />
            <mxPoint x="-379.96000000000004" y="1439.92" as="targetPoint" />
          </mxGeometry>
        </mxCell>
        <mxCell id="xHxmoFjbufYu5VJIdYqy-63" value="" style="endArrow=classic;html=1;rounded=0;entryX=0;entryY=0.5;entryDx=0;entryDy=0;" edge="1" parent="WIyWlLk6GJQsqaUBKTNV-1" target="xHxmoFjbufYu5VJIdYqy-21">
          <mxGeometry width="50" height="50" relative="1" as="geometry">
            <mxPoint x="-380" y="1500" as="sourcePoint" />
            <mxPoint x="-450" y="1520" as="targetPoint" />
          </mxGeometry>
        </mxCell>
        <mxCell id="xHxmoFjbufYu5VJIdYqy-64" value="" style="endArrow=classic;html=1;rounded=0;entryX=0;entryY=0.5;entryDx=0;entryDy=0;" edge="1" parent="WIyWlLk6GJQsqaUBKTNV-1" target="xHxmoFjbufYu5VJIdYqy-22">
          <mxGeometry width="50" height="50" relative="1" as="geometry">
            <mxPoint x="-380" y="1580" as="sourcePoint" />
            <mxPoint x="-450" y="1520" as="targetPoint" />
          </mxGeometry>
        </mxCell>
        <mxCell id="xHxmoFjbufYu5VJIdYqy-65" value="" style="endArrow=none;html=1;rounded=0;entryX=0.114;entryY=1.015;entryDx=0;entryDy=0;entryPerimeter=0;" edge="1" parent="WIyWlLk6GJQsqaUBKTNV-1">
          <mxGeometry width="50" height="50" relative="1" as="geometry">
            <mxPoint x="-140" y="1580" as="sourcePoint" />
            <mxPoint x="-141.76" y="1440.1999999999998" as="targetPoint" />
          </mxGeometry>
        </mxCell>
        <mxCell id="xHxmoFjbufYu5VJIdYqy-66" value="" style="endArrow=classic;html=1;rounded=0;entryX=0;entryY=0.5;entryDx=0;entryDy=0;" edge="1" parent="WIyWlLk6GJQsqaUBKTNV-1" target="xHxmoFjbufYu5VJIdYqy-13">
          <mxGeometry width="50" height="50" relative="1" as="geometry">
            <mxPoint x="-140" y="1500" as="sourcePoint" />
            <mxPoint x="30" y="1520" as="targetPoint" />
          </mxGeometry>
        </mxCell>
        <mxCell id="xHxmoFjbufYu5VJIdYqy-67" value="" style="endArrow=classic;html=1;rounded=0;entryX=0;entryY=0.5;entryDx=0;entryDy=0;" edge="1" parent="WIyWlLk6GJQsqaUBKTNV-1" target="xHxmoFjbufYu5VJIdYqy-14">
          <mxGeometry width="50" height="50" relative="1" as="geometry">
            <mxPoint x="-140" y="1580" as="sourcePoint" />
            <mxPoint x="30" y="1520" as="targetPoint" />
          </mxGeometry>
        </mxCell>
        <mxCell id="xHxmoFjbufYu5VJIdYqy-68" value="" style="endArrow=none;html=1;rounded=0;entryX=0.117;entryY=0.976;entryDx=0;entryDy=0;entryPerimeter=0;" edge="1" parent="WIyWlLk6GJQsqaUBKTNV-1">
          <mxGeometry width="50" height="50" relative="1" as="geometry">
            <mxPoint x="98" y="1662" as="sourcePoint" />
            <mxPoint x="98.72000000000003" y="1440.08" as="targetPoint" />
          </mxGeometry>
        </mxCell>
        <mxCell id="xHxmoFjbufYu5VJIdYqy-69" value="" style="endArrow=classic;html=1;rounded=0;entryX=0;entryY=0.5;entryDx=0;entryDy=0;" edge="1" parent="WIyWlLk6GJQsqaUBKTNV-1" target="xHxmoFjbufYu5VJIdYqy-18">
          <mxGeometry width="50" height="50" relative="1" as="geometry">
            <mxPoint x="100" y="1500" as="sourcePoint" />
            <mxPoint x="30" y="1520" as="targetPoint" />
          </mxGeometry>
        </mxCell>
        <mxCell id="xHxmoFjbufYu5VJIdYqy-70" value="" style="endArrow=classic;html=1;rounded=0;entryX=0;entryY=0.5;entryDx=0;entryDy=0;" edge="1" parent="WIyWlLk6GJQsqaUBKTNV-1" target="xHxmoFjbufYu5VJIdYqy-19">
          <mxGeometry width="50" height="50" relative="1" as="geometry">
            <mxPoint x="100" y="1580" as="sourcePoint" />
            <mxPoint x="30" y="1520" as="targetPoint" />
          </mxGeometry>
        </mxCell>
        <mxCell id="xHxmoFjbufYu5VJIdYqy-71" value="" style="endArrow=classic;html=1;rounded=0;entryX=0;entryY=0.5;entryDx=0;entryDy=0;" edge="1" parent="WIyWlLk6GJQsqaUBKTNV-1" target="xHxmoFjbufYu5VJIdYqy-20">
          <mxGeometry width="50" height="50" relative="1" as="geometry">
            <mxPoint x="100" y="1660" as="sourcePoint" />
            <mxPoint x="30" y="1520" as="targetPoint" />
          </mxGeometry>
        </mxCell>
        <mxCell id="xHxmoFjbufYu5VJIdYqy-72" value="" style="endArrow=none;html=1;rounded=0;entryX=0.124;entryY=0.995;entryDx=0;entryDy=0;entryPerimeter=0;" edge="1" parent="WIyWlLk6GJQsqaUBKTNV-1" target="xHxmoFjbufYu5VJIdYqy-4">
          <mxGeometry width="50" height="50" relative="1" as="geometry">
            <mxPoint x="340" y="1580" as="sourcePoint" />
            <mxPoint x="290" y="1520" as="targetPoint" />
          </mxGeometry>
        </mxCell>
        <mxCell id="xHxmoFjbufYu5VJIdYqy-73" value="" style="endArrow=classic;html=1;rounded=0;entryX=0;entryY=0.5;entryDx=0;entryDy=0;" edge="1" parent="WIyWlLk6GJQsqaUBKTNV-1" target="xHxmoFjbufYu5VJIdYqy-24">
          <mxGeometry width="50" height="50" relative="1" as="geometry">
            <mxPoint x="340" y="1580" as="sourcePoint" />
            <mxPoint x="330" y="1540" as="targetPoint" />
          </mxGeometry>
        </mxCell>
        <mxCell id="xHxmoFjbufYu5VJIdYqy-74" value="" style="endArrow=classic;html=1;rounded=0;entryX=0;entryY=0.5;entryDx=0;entryDy=0;" edge="1" parent="WIyWlLk6GJQsqaUBKTNV-1" target="xHxmoFjbufYu5VJIdYqy-23">
          <mxGeometry width="50" height="50" relative="1" as="geometry">
            <mxPoint x="340" y="1500" as="sourcePoint" />
            <mxPoint x="330" y="1540" as="targetPoint" />
          </mxGeometry>
        </mxCell>
        <mxCell id="xHxmoFjbufYu5VJIdYqy-75" value="" style="endArrow=none;html=1;rounded=0;exitX=0.127;exitY=1.005;exitDx=0;exitDy=0;exitPerimeter=0;" edge="1" parent="WIyWlLk6GJQsqaUBKTNV-1" source="xHxmoFjbufYu5VJIdYqy-6">
          <mxGeometry width="50" height="50" relative="1" as="geometry">
            <mxPoint x="600" y="1460" as="sourcePoint" />
            <mxPoint x="580" y="1740" as="targetPoint" />
          </mxGeometry>
        </mxCell>
        <mxCell id="xHxmoFjbufYu5VJIdYqy-76" value="" style="endArrow=classic;html=1;rounded=0;entryX=0;entryY=0.5;entryDx=0;entryDy=0;" edge="1" parent="WIyWlLk6GJQsqaUBKTNV-1" target="xHxmoFjbufYu5VJIdYqy-29">
          <mxGeometry width="50" height="50" relative="1" as="geometry">
            <mxPoint x="580" y="1740" as="sourcePoint" />
            <mxPoint x="650" y="1670" as="targetPoint" />
          </mxGeometry>
        </mxCell>
        <mxCell id="xHxmoFjbufYu5VJIdYqy-77" value="" style="endArrow=classic;html=1;rounded=0;entryX=0;entryY=0.5;entryDx=0;entryDy=0;" edge="1" parent="WIyWlLk6GJQsqaUBKTNV-1" target="xHxmoFjbufYu5VJIdYqy-28">
          <mxGeometry width="50" height="50" relative="1" as="geometry">
            <mxPoint x="580" y="1660" as="sourcePoint" />
            <mxPoint x="650" y="1670" as="targetPoint" />
          </mxGeometry>
        </mxCell>
        <mxCell id="xHxmoFjbufYu5VJIdYqy-78" value="" style="endArrow=classic;html=1;rounded=0;entryX=0;entryY=0.5;entryDx=0;entryDy=0;" edge="1" parent="WIyWlLk6GJQsqaUBKTNV-1" target="xHxmoFjbufYu5VJIdYqy-27">
          <mxGeometry width="50" height="50" relative="1" as="geometry">
            <mxPoint x="580" y="1580" as="sourcePoint" />
            <mxPoint x="650" y="1670" as="targetPoint" />
          </mxGeometry>
        </mxCell>
        <mxCell id="xHxmoFjbufYu5VJIdYqy-79" value="" style="endArrow=classic;html=1;rounded=0;" edge="1" parent="WIyWlLk6GJQsqaUBKTNV-1">
          <mxGeometry width="50" height="50" relative="1" as="geometry">
            <mxPoint x="580" y="1500" as="sourcePoint" />
            <mxPoint x="600" y="1500" as="targetPoint" />
          </mxGeometry>
        </mxCell>
        <mxCell id="xHxmoFjbufYu5VJIdYqy-80" value="" style="endArrow=none;html=1;rounded=0;exitX=0.126;exitY=1.005;exitDx=0;exitDy=0;exitPerimeter=0;" edge="1" parent="WIyWlLk6GJQsqaUBKTNV-1" source="xHxmoFjbufYu5VJIdYqy-5">
          <mxGeometry width="50" height="50" relative="1" as="geometry">
            <mxPoint x="880" y="1490" as="sourcePoint" />
            <mxPoint x="820" y="1740" as="targetPoint" />
          </mxGeometry>
        </mxCell>
        <mxCell id="xHxmoFjbufYu5VJIdYqy-81" value="" style="endArrow=classic;html=1;rounded=0;entryX=0;entryY=0.5;entryDx=0;entryDy=0;" edge="1" parent="WIyWlLk6GJQsqaUBKTNV-1" target="xHxmoFjbufYu5VJIdYqy-33">
          <mxGeometry width="50" height="50" relative="1" as="geometry">
            <mxPoint x="820" y="1740" as="sourcePoint" />
            <mxPoint x="930" y="1710" as="targetPoint" />
          </mxGeometry>
        </mxCell>
        <mxCell id="xHxmoFjbufYu5VJIdYqy-82" value="" style="endArrow=classic;html=1;rounded=0;entryX=0;entryY=0.5;entryDx=0;entryDy=0;" edge="1" parent="WIyWlLk6GJQsqaUBKTNV-1" target="xHxmoFjbufYu5VJIdYqy-32">
          <mxGeometry width="50" height="50" relative="1" as="geometry">
            <mxPoint x="820" y="1660" as="sourcePoint" />
            <mxPoint x="930" y="1710" as="targetPoint" />
          </mxGeometry>
        </mxCell>
        <mxCell id="xHxmoFjbufYu5VJIdYqy-83" value="" style="endArrow=classic;html=1;rounded=0;entryX=0;entryY=0.5;entryDx=0;entryDy=0;" edge="1" parent="WIyWlLk6GJQsqaUBKTNV-1" target="xHxmoFjbufYu5VJIdYqy-30">
          <mxGeometry width="50" height="50" relative="1" as="geometry">
            <mxPoint x="820" y="1500" as="sourcePoint" />
            <mxPoint x="930" y="1530" as="targetPoint" />
          </mxGeometry>
        </mxCell>
        <mxCell id="xHxmoFjbufYu5VJIdYqy-84" value="" style="endArrow=classic;html=1;rounded=0;entryX=0;entryY=0.5;entryDx=0;entryDy=0;" edge="1" parent="WIyWlLk6GJQsqaUBKTNV-1" target="xHxmoFjbufYu5VJIdYqy-31">
          <mxGeometry width="50" height="50" relative="1" as="geometry">
            <mxPoint x="820" y="1580" as="sourcePoint" />
            <mxPoint x="930" y="1530" as="targetPoint" />
          </mxGeometry>
        </mxCell>
        <mxCell id="xHxmoFjbufYu5VJIdYqy-85" value="" style="endArrow=none;html=1;rounded=0;exitX=0.126;exitY=1.01;exitDx=0;exitDy=0;exitPerimeter=0;" edge="1" parent="WIyWlLk6GJQsqaUBKTNV-1" source="xHxmoFjbufYu5VJIdYqy-7">
          <mxGeometry width="50" height="50" relative="1" as="geometry">
            <mxPoint x="1130" y="1500" as="sourcePoint" />
            <mxPoint x="1060" y="1580" as="targetPoint" />
          </mxGeometry>
        </mxCell>
        <mxCell id="xHxmoFjbufYu5VJIdYqy-86" value="" style="endArrow=classic;html=1;rounded=0;entryX=0;entryY=0.5;entryDx=0;entryDy=0;" edge="1" parent="WIyWlLk6GJQsqaUBKTNV-1" target="xHxmoFjbufYu5VJIdYqy-35">
          <mxGeometry width="50" height="50" relative="1" as="geometry">
            <mxPoint x="1060" y="1580" as="sourcePoint" />
            <mxPoint x="1180" y="1540" as="targetPoint" />
          </mxGeometry>
        </mxCell>
        <mxCell id="xHxmoFjbufYu5VJIdYqy-87" value="" style="endArrow=classic;html=1;rounded=0;entryX=0;entryY=0.5;entryDx=0;entryDy=0;" edge="1" parent="WIyWlLk6GJQsqaUBKTNV-1" target="xHxmoFjbufYu5VJIdYqy-34">
          <mxGeometry width="50" height="50" relative="1" as="geometry">
            <mxPoint x="1060" y="1500" as="sourcePoint" />
            <mxPoint x="1080" y="1500" as="targetPoint" />
          </mxGeometry>
        </mxCell>
        <mxCell id="xHxmoFjbufYu5VJIdYqy-88" value="" style="endArrow=none;html=1;rounded=0;entryX=0.126;entryY=1.012;entryDx=0;entryDy=0;entryPerimeter=0;" edge="1" parent="WIyWlLk6GJQsqaUBKTNV-1" target="xHxmoFjbufYu5VJIdYqy-8">
          <mxGeometry width="50" height="50" relative="1" as="geometry">
            <mxPoint x="1300" y="1660" as="sourcePoint" />
            <mxPoint x="1420" y="1460" as="targetPoint" />
          </mxGeometry>
        </mxCell>
        <mxCell id="xHxmoFjbufYu5VJIdYqy-89" value="" style="endArrow=classic;html=1;rounded=0;entryX=0;entryY=0.5;entryDx=0;entryDy=0;" edge="1" parent="WIyWlLk6GJQsqaUBKTNV-1" target="xHxmoFjbufYu5VJIdYqy-37">
          <mxGeometry width="50" height="50" relative="1" as="geometry">
            <mxPoint x="1300" y="1580" as="sourcePoint" />
            <mxPoint x="1420" y="1510" as="targetPoint" />
          </mxGeometry>
        </mxCell>
        <mxCell id="xHxmoFjbufYu5VJIdYqy-90" value="" style="endArrow=classic;html=1;rounded=0;entryX=0;entryY=0.5;entryDx=0;entryDy=0;" edge="1" parent="WIyWlLk6GJQsqaUBKTNV-1" target="xHxmoFjbufYu5VJIdYqy-36">
          <mxGeometry width="50" height="50" relative="1" as="geometry">
            <mxPoint x="1300" y="1500" as="sourcePoint" />
            <mxPoint x="1420" y="1510" as="targetPoint" />
          </mxGeometry>
        </mxCell>
        <mxCell id="xHxmoFjbufYu5VJIdYqy-91" value="" style="endArrow=classic;html=1;rounded=0;entryX=0;entryY=0.5;entryDx=0;entryDy=0;" edge="1" parent="WIyWlLk6GJQsqaUBKTNV-1" target="xHxmoFjbufYu5VJIdYqy-38">
          <mxGeometry width="50" height="50" relative="1" as="geometry">
            <mxPoint x="1300" y="1660" as="sourcePoint" />
            <mxPoint x="1080" y="1500" as="targetPoint" />
          </mxGeometry>
        </mxCell>
      </root>
    </mxGraphModel>
  </diagram>
</mxfile>
